<svg width="481" height="481" viewBox="0 0 481 481" fill="none" xmlns="http://www.w3.org/2000/svg">
<rect width="480" height="480" transform="translate(0.835938 0.243164)" fill="black"/>
<path d="M249.077 239.306C285.827 317.584 263.212 404.3 299.962 404.3C239.654 404.3 211.385 343.365 183.116 274.461L140.241 168.527C109.145 93.0605 99.7222 76.186 65.3281 76.186H127.991C188.299 76.186 195.366 107.591 225.52 183.058L249.077 239.306ZM390.423 317.584C390.423 357.427 393.721 403.363 416.336 404.3C385.712 404.3 323.52 393.051 323.52 306.335V162.433C323.52 122.591 320.221 77.1235 297.606 76.186C328.231 76.186 390.423 86.9669 390.423 173.683V317.584ZM136.943 295.554C136.943 370.083 169.924 404.3 199.606 404.3H74.28C103.963 404.3 136.943 370.083 136.943 295.554Z" fill="white"/>
</svg>
