<svg xmlns="http://www.w3.org/2000/svg"  width="575.9331369707661" height="520.7395446777343" viewBox="0 0 240 217" class="looka-1j8o68f"><defs id="SvgjsDefs1013"></defs><g id="SvgjsG1014" featurekey="rootContainer" transform="matrix(1,0,0,1,0,0)" fill="#111111"><rect xmlns="http://www.w3.org/2000/svg" width="240" height="217" rx="10" ry="10"></rect></g><g id="SvgjsG1015" featurekey="uKAeQw-0" transform="matrix(3.1748048310214902,0,0,3.1748048310214902,18.79357493628294,-2.28713136708118)" fill="#f6f6f6"><path d="M11.86 15.36 c0.04 3.26 -2.5 4.9 -5.04 4.9 s-5.08 -1.64 -5.06 -4.9 l0 -6.9 c0 -0.92 -0.4 -0.94 -1.38 -0.94 l0 -0.14 l3.58 0 l0 0.14 c-0.98 0 -1.38 0.02 -1.38 0.94 l0 6.9 c0 3.02 2.2 4.48 4.42 4.48 c2.28 0 4.58 -1.52 4.58 -4.48 l0 -6.9 c0 -0.92 -0.4 -0.94 -1.36 -0.94 l0 -0.14 l2.02 0 l5.32 10.56 l5.14 -10.56 l1.92 0 l0 0.14 c-0.98 0 -1.38 0.02 -1.38 0.94 l0 10.48 c0 0.92 0.4 0.94 1.38 0.94 l0 0.14 l-3.58 0 l0 -0.14 c0.98 0 1.38 -0.02 1.38 -0.94 l0 -10.42 l-5.02 10.38 l-0.28 0 l-5.26 -10.46 l0 6.92 z M39.378 15.059999999999999 c-0.74 1.68 -0.38 1.82 0.88 1.82 l0 0.14 l-3.32 0 l0 -0.14 c0.98 0 1.28 -0.02 1.74 -0.92 l3.94 -8.94 l0.1 0 l3.84 8.64 c0.52 1.04 0.56 1.22 1.54 1.22 l0 0.14 l-3.04 0 l0 -0.14 c1.02 0 1.14 -0.12 0.66 -1.28 l-1.08 -2.42 l-4.42 0 z M47.858000000000004 18.64 c-1.76 1.62 -3.58 2.12 -5.46 2.12 c-7.2 0 -8.88 -6.78 -13.42 -6.88 l0 5.04 c0 0.9 0.4 0.92 1.38 0.92 l0 0.14 l-3.58 0 l0 -0.14 c0.98 0 1.38 -0.02 1.38 -0.92 l0 -10.5 c0 -0.9 -0.4 -0.92 -1.38 -0.92 l0 -0.14 l4.8 0 c3.9 0 5.14 1.94 5.14 3.52 c0 2.18 -1.66 3.6 -3.76 3.6 c-0.28 0 -0.56 -0.02 -0.86 -0.08 c2.9 1.7 5.32 5.82 10.86 5.82 c1.72 0 3.26 -0.48 4.8 -1.7 z M31.058 13.92 c0.48 0.16 0.96 0.22 1.4 0.22 c1.92 0 3.4 -1.36 3.4 -3.4 c0 -1.6 -1.4 -3.16 -4.26 -3.16 l-2.62 0 l0 6.1 l0.7 0 c0.48 0 0.94 0.08 1.38 0.24 z M42.418 8.2 l-2.1 4.74 l4.2 0 z M52.876000000000005 18.94 c0 0.92 0.4 0.94 1.38 0.94 l0 0.14 l-3.58 0 l0 -0.14 c0.98 0 1.38 -0.02 1.38 -0.94 l0 -10.48 c0 -0.92 -0.4 -0.94 -1.38 -0.94 l0 -0.14 l3.58 0 l0 0.14 c-0.98 0 -1.38 0.02 -1.38 0.94 l0 4.78 l8.3 0 l0 -4.78 c0 -0.92 -0.4 -0.94 -1.36 -0.94 l-0.02 -0.14 l3.58 0 l0 0.14 c-0.98 0 -1.36 0.02 -1.36 0.94 l0 10.48 c0 0.92 0.38 0.94 1.36 0.94 l0 0.14 l-3.58 0 l0.02 -0.14 c0.96 0 1.36 -0.02 1.36 -0.94 l0 -5.46 l-8.3 0 l0 5.46 z"></path></g><g id="SvgjsG1016" featurekey="uKAeQw-1" transform="matrix(9.765624308784076,0,0,9.765624308784076,16.09375080035528,1.9296961401990558)" fill="#f6f6f6"><path d="M6.4 20 l-0.82 0 l0 0.02 l-1.38 0 l0 -0.16 c0.98 0 1.38 -0.02 1.38 -0.92 l0 -11.34 l-2.94 0 c-1.82 0 -1.8 0.1 -2.08 2.78 l-0.16 -0.02 l0.18 -2.98 l7.16 0 c5.36 0 7.06 2.5 7.46 6.36 c0.54 -3.78 2.46 -6.08 4.5 -6.34 c0.44 -0.06 1.08 0.08 1.18 0.4 c-3.32 -0.02 -5.58 3.88 -5.58 8.38 l0 2.54 c0 0.9 0.4 1.14 1.36 1.14 l0 0.16 l-1.38 0 l0 -0.02 l-0.8 0 l0 0.02 l-1.38 0 l0 -0.16 c0.98 0 1.36 -0.24 1.36 -1.14 l0 -2.54 c0 -4.1 -0.98 -8.58 -6.72 -8.58 l-1.34 0 l0 11.34 c0 0.9 0.4 0.92 1.38 0.92 l0 0.16 l-1.38 0 l0 -0.02 z"></path></g></svg>