<svg xmlns="http://www.w3.org/2000/svg" width="655.359" height="655.359" fill-rule="evenodd" clip-rule="evenodd" image-rendering="optimizeQuality" shape-rendering="geometricPrecision" text-rendering="geometricPrecision" viewBox="0 0 6.827 6.827" id="free"><path fill-rule="nonzero" d="M3.167 2.734c-.109.069-.565.295-1.552-.004-.176-.053-.322-.079-.501-.002.269.115.804.354 1.241.799.362.367 1.596.707 2.102.526l.096-.037c.605-.244.736-.873.279-1.235h-.004a.887.887 0 0 1-.314.13 2.124 2.124 0 0 1-.48.051c-.203 0-.39-.025-.538-.066a.668.668 0 0 1-.308-.162h-.021zm-1.5-.155c1 .302 1.382.045 1.422.015a.08.08 0 0 1 .056-.02l.078.002a.08.08 0 0 1 .072.037c.03.049.118.094.244.129.134.038.306.06.495.06.165 0 .318-.017.444-.047a.683.683 0 0 0 .266-.11.08.08 0 0 1 .06-.024s.094.01.104.017c.62.465.43 1.25-.32 1.536l-.052.02c-.549.21-1.888-.136-2.279-.54C1.71 3.087.96 2.837.911 2.82a.08.08 0 0 1-.025-.139c.34-.271.746-.116.78-.102z"></path><path fill-rule="nonzero" d="M3.825 2.394a1.428 1.428 0 0 0-.382.083c-.097.038-.155.08-.155.117 0 .042.072.088.188.128.141.05.338.08.558.08.22 0 .416-.03.558-.08.116-.04.188-.086.188-.128 0-.037-.059-.079-.155-.117a1.427 1.427 0 0 0-.382-.083.255.255 0 0 0 .047-.155c.153.017.289.048.394.09.16.063.256.155.256.265 0 .117-.113.215-.296.28a1.92 1.92 0 0 1-.61.088 1.92 1.92 0 0 1-.61-.089c-.183-.064-.296-.162-.296-.28 0-.109.097-.2.256-.264a1.55 1.55 0 0 1 .393-.09.253.253 0 0 0 .048.155z"></path><path fill-rule="nonzero" d="M4.034 2.15a.096.096 0 0 0-.068.164.096.096 0 0 0 .165-.068.096.096 0 0 0-.097-.097zm-.182-.085a.256.256 0 0 1 .439.181.256.256 0 0 1-.439.181.256.256 0 0 1 0-.362zm1.212.717.007-.005c.058-.086.375-.52.748-.28l.007.004c.051.037.087.08.111.128a.364.364 0 0 1 .017.268.877.877 0 0 1-.132.261c-.196.278-.546.55-.706.631a.823.823 0 0 0 .153-.349.688.688 0 0 1-.01.063c.147-.114.317-.274.432-.437a.723.723 0 0 0 .11-.212.212.212 0 0 0-.006-.154.198.198 0 0 0-.063-.07c-.198-.126-.387.055-.478.168-.03.035-.057.084-.094.11a.91.91 0 0 0-.096-.126zM3.58 4.205a.75.75 0 0 0-.238.102c-.051.036-.08.074-.08.111 0 .059.07.118.182.166.133.058.32.093.526.093.207 0 .393-.035.527-.093.113-.048.182-.107.182-.166 0-.035-.026-.071-.073-.106a.64.64 0 0 0-.177-.086.79.79 0 0 0 .108-.032l.052-.02.06-.025a.59.59 0 0 1 .052.035c.088.066.138.145.138.234 0 .129-.106.24-.28.313-.151.066-.36.106-.589.106-.228 0-.437-.04-.59-.106-.172-.074-.279-.184-.279-.313 0-.093.055-.175.15-.242a.611.611 0 0 1 .05-.031c.092.023.186.044.279.06z"></path><path fill="none" d="M0 0h6.827v6.827H0z"></path></svg>